HIERARCHY
ROOT Hips
{
	OFFSET 0.00000 0.00000 0.00000
	CHANNELS 6 Xposition Yposition Zposition Yrotation Zrotation Xrotation 
	JOINT Lumbar
	{
		OFFSET 0 0 0
		CHANNELS 3 Zrotation Xrotation Yrotation
		JOINT Neck
		{
			OFFSET 0.00 0.2701 0.00
			CHANNELS 3 Zrotation Xrotation Yrotation
			End Site
			{
				OFFSET 0.00 0.1379 0.00
			}
		}
		JOINT RightShoulder
		{
			OFFSET 0.0119 0.2289 0.1181
			CHANNELS 3 Zrotation Xrotation Yrotation
			JOINT RightElbow
			{
				OFFSET 0.00 -0.1475 0.00
				CHANNELS 2 Zrotation Yrotation
				JOINT RightWrist
				{
					OFFSET 0.00 -0.1605 0.00
					CHANNELS 2 Zrotation Xrotation
					End Site
					{
						OFFSET 0.0040 -0.1068 0.0006
					}
				}
			}
		}
		JOINT LeftShoulder
		{
			OFFSET 0.0119 0.2289 -0.1181
			CHANNELS 3 Zrotation Xrotation Yrotation
			JOINT LeftElbow
			{
				OFFSET 0.00 -0.1475 0.00
				CHANNELS 2 Zrotation Yrotation
				JOINT LeftWrist
				{
					OFFSET 0.00 -0.1605 0.00
					CHANNELS 2 Zrotation Xrotation
					End Site
					{
						OFFSET 0.0040 -0.1068 -0.0006
					}
				}
			}
		}
	}
	JOINT RightHip
	{
		OFFSET 0.0316 -0.0424 0.0458
		CHANNELS 3 Zrotation Xrotation Yrotation
		JOINT RightKnee
		{
			OFFSET 0.00 -0.2438 0.00
			CHANNELS 1 Zrotation
			JOINT RightAnkle
			{
				OFFSET 0.00 -0.2449 0.00
				CHANNELS 3 Zrotation Xrotation Yrotation
				End Site
				{
					OFFSET 0.1237 -0.0542 0.0051
				}
			}
		}
	}
	JOINT LeftHip
	{
		OFFSET 0.0316 -0.0424 -0.0458
		CHANNELS 3 Zrotation Xrotation Yrotation
		JOINT LeftKnee
		{
			OFFSET 0.00 -0.2438 0.00
			CHANNELS 1 Zrotation
			JOINT LeftAnkle
			{
				OFFSET 0.00 -0.2449 0.00
				CHANNELS 3 Zrotation Xrotation Yrotation
				End Site
				{
					OFFSET 0.1237 -0.0542 -0.0051
				}
			}
		}
	}
}
MOTION
Frames: 23
Frame Time: 0.02
0 0.57926 0 175.47193 0 -5.13768 5.61279 5.10607 0.78793 -29.91229 1.17402 1.83678 -12.68284 -65.1896 -90.01166 21.50357 62.72653 -26.30669 -0.89269 8.44402 69.34762 77.86091 24.58561 -81.96767 -22.43539 3.83752 -0.77339 5.48661 -0.88985 -9.13987 0.98611 -5.02756 -10.81734 -2.37792 4.63186 9.5958 -6.92971 5.5382 6.58461 11.54294
-0.00036 0.57923 -8e-05 175.45815 0 -5.13774 5.59448 5.10077 0.83628 -30.26992 1.26209 1.86772 -11.72553 -64.87595 -90.01165 21.70026 64.17897 -26.02132 -1.11343 8.52971 68.75798 77.94558 24.7547 -82.80769 -22.58111 3.94016 -0.83841 5.48842 -0.95474 -9.07956 0.99342 -5.00596 -10.76539 -2.41814 4.6347 9.59424 -6.9281 5.56022 6.60302 11.55805
-0.00073 0.57919 -0.00016 175.4452 0 -5.13775 5.57632 5.09547 0.88362 -30.62704 1.34938 1.8983 -10.76833 -64.56296 -90.01165 21.89553 65.62497 -25.73543 -1.33302 8.61763 68.17082 78.02841 24.9218 -83.64309 -22.72505 4.0425 -0.90338 5.49022 -1.01968 -9.01937 1.00075 -4.98464 -10.71393 -2.45815 4.63754 9.5922 -6.92644 5.58217 6.62126 11.57286
-0.00109 0.57915 -0.00024 175.43469 0 -5.13761 5.5586 5.09014 0.92723 -30.98549 1.43458 1.92804 -9.80092 -64.24993 -90.01164 22.08781 67.06108 -25.44317 -1.55034 8.71165 67.58752 78.1068 25.08381 -84.47134 -22.86403 4.14434 -0.9686 5.49205 -1.08473 -8.95907 1.00812 -4.96431 -10.66389 -2.49778 4.64041 9.58876 -6.92452 5.60406 6.63916 11.58679
-0.00146 0.57911 -0.00033 175.41031 0 -5.13831 5.53861 5.08504 0.99039 -31.33676 1.53102 1.96258 -8.88604 -63.93754 -90.01163 22.29683 68.55163 -25.18283 -1.77988 8.76894 66.98336 78.21124 25.27427 -85.34117 -23.03022 4.24847 -1.03228 5.49376 -1.1483 -8.89937 1.01521 -4.93883 -10.60631 -2.53951 4.64314 9.59338 -6.92395 5.62627 6.65905 11.60557
-0.00181 0.57907 -0.00041 175.41593 0 -5.1372 5.52337 5.07943 1.01226 -31.70293 1.60351 1.98668 -7.86203 -63.62383 -90.01162 22.46961 69.92418 -24.85651 -1.98323 8.90687 66.42421 78.25876 25.40337 -86.11966 -23.13806 4.34789 -1.09927 5.49572 -1.21556 -8.83847 1.02293 -4.92422 -10.56477 -2.57667 4.64616 9.58051 -6.92056 5.6478 6.67461 11.61395
-0.00211 0.57903 -0.00049 175.50231 0 -5.13135 5.5219 5.07229 0.91551 -32.12135 1.61006 1.98365 -6.48775 -63.30029 -90.01161 22.54881 71.00872 -24.32096 -2.11812 9.25384 65.97602 78.15895 25.36906 -86.68089 -23.08725 4.43438 -1.17674 5.49854 -1.29007 -8.77224 1.0321 -4.94068 -10.56769 -2.60253 4.64992 9.52084 -6.9084 5.66793 6.67884 11.59378
-0.00239 0.57899 -0.00057 175.6194 0 -5.12363 5.52508 5.06465 0.77781 -32.55312 1.59242 1.9698 -5.01088 -62.97638 -90.0116 22.59041 71.96843 -23.723 -2.22599 9.68472 65.57519 77.99969 25.27184 -87.14487 -22.9771 4.51604 -1.25737 5.5016 -1.3689 -8.70511 1.04196 -4.96795 -10.58674 -2.62357 4.65396 9.4432 -6.89351 5.68731 6.67859 11.56307
-0.00268 0.57895 -0.00066 175.72399 0 -5.11662 5.52573 5.05733 0.66173 -32.97226 1.58565 1.95973 -3.6108 -62.65598 -90.01159 22.64492 72.9619 -23.17075 -2.34386 10.08705 65.16088 77.86117 25.1992 -87.63031 -22.89229 4.60013 -1.33581 5.50449 -1.44778 -8.63962 1.05171 -4.98963 -10.59832 -2.64598 4.6579 9.37268 -6.88051 5.70677 6.67996 11.53699
-0.00298 0.5789 -0.00074 175.82267 0 -5.11021 5.52822 5.04965 0.533 -33.41957 1.57924 1.9543 -2.083 -62.32072 -90.01158 22.71658 74.05191 -22.54612 -2.47135 10.4505 64.71288 77.74943 25.14277 -88.20847 -22.81399 4.68381 -1.41752 5.50765 -1.51826 -8.5689 1.06061 -5.01413 -10.61062 -2.67181 4.66179 9.30643 -6.86492 5.72738 6.68304 11.51147
-0.00325 0.57886 -0.00082 175.94065 0 -5.10212 5.52786 5.04258 0.42084 -33.81071 1.56655 1.93683 -0.7976 -62.01735 -90.01157 22.74419 74.91147 -22.05647 -2.57237 10.91284 64.34607 77.56745 25.03854 -88.57436 -22.70849 4.76646 -1.49306 5.51029 -1.60713 -8.50891 1.07146 -5.03533 -10.62512 -2.68943 4.6658 9.22718 -6.8539 5.74535 6.68155 11.4824
-0.00344 0.57884 -0.00091 176.1071 0 -5.08987 5.51971 5.03734 0.36491 -34.04941 1.54045 1.88705 -0.19938 -61.79312 -90.01159 22.65416 75.16373 -21.96277 -2.60729 11.6453 64.19373 77.20901 24.80985 -88.34366 -22.53854 4.85389 -1.55174 5.5116 -1.74676 -8.47841 1.08737 -5.04483 -10.64284 -2.68493 4.67036 9.11503 -6.85753 5.75684 6.66795 11.44516
-0.0036 0.57882 -0.001 176.29138 0 -5.076 5.50834 5.03273 0.32701 -34.23007 1.50919 1.82586 0.15021 -61.60267 -90.01159 22.52206 75.18884 -22.0056 -2.61647 12.4712 64.12118 76.78138 24.53671 -87.90866 -22.34399 4.93935 -1.60394 5.51234 -1.9045 -8.45879 1.10523 -5.05062 -10.66202 -2.67246 4.67499 8.99066 -6.86562 5.76559 6.65001 11.40489
-0.00377 0.57879 -0.00108 176.4658 0 -5.06286 5.49761 5.02781 0.28051 -34.43339 1.48163 1.77102 0.60866 -61.40267 -90.01162 22.41261 75.31877 -21.98064 -2.63712 13.24268 64.01077 76.38355 24.28902 -87.59018 -22.16319 5.02138 -1.65848 5.5132 -2.05334 -8.43442 1.12233 -5.05806 -10.67977 -2.66408 4.67939 8.87278 -6.87074 5.77517 6.63441 11.36658
-0.00396 0.57877 -0.00117 176.64886 0 -5.04968 5.49037 5.02298 0.23417 -34.65274 1.44767 1.71085 1.08737 -61.1782 -90.01163 22.28694 75.43701 -21.97758 -2.65761 14.06716 63.90844 75.99066 24.01684 -87.17009 -21.96942 5.12109 -1.71567 5.51462 -2.20542 -8.40924 1.13899 -5.06601 -10.70123 -2.65359 4.6846 8.75031 -6.8796 5.78647 6.61704 11.32535
-0.00411 0.57875 -0.00126 176.81757 0 -5.03626 5.47522 5.01809 0.19246 -34.8249 1.42595 1.65924 1.46445 -61.01268 -90.01161 22.18554 75.52807 -21.96234 -2.67291 14.80286 63.80801 75.57171 23.7861 -86.9122 -21.79766 5.18409 -1.76578 5.51479 -2.35468 -8.38827 1.15695 -5.07192 -10.71521 -2.64562 4.68818 8.63473 -6.88192 5.79356 6.60245 11.28975
-0.0042 0.57873 -0.00133 176.94351 0 -5.0223 5.43748 5.013 0.15816 -34.87948 1.44087 1.63394 1.61325 -61.00172 -90.0117 22.16166 75.59341 -21.87864 -2.67852 15.26573 63.68933 75.09864 23.67956 -87.17226 -21.69253 5.14196 -1.79755 5.51104 -2.49436 -8.37694 1.1785 -5.07273 -10.70731 -2.64687 4.68679 8.54143 -6.86398 5.78945 6.59608 11.26936
-0.00426 0.57871 -0.0014 177.05393 0 -5.00823 5.39216 5.0078 0.12833 -34.88876 1.46812 1.61775 1.6696 -61.04875 -90.01148 22.16376 75.64095 -21.77843 -2.68049 15.63659 63.57015 74.60164 23.61675 -87.59979 -21.61086 5.06379 -1.82245 5.50616 -2.63003 -8.36936 1.2012 -5.07163 -10.69193 -2.6509 4.68384 8.45559 -6.83955 5.78126 6.59279 11.25499
-0.00433 0.5787 -0.00148 177.17055 0 -4.99442 5.35129 5.00255 0.09726 -34.91971 1.48884 1.59749 1.77313 -61.06941 -90.01158 22.15405 75.7015 -21.68714 -2.68506 16.05224 63.45379 74.11555 23.53497 -87.93743 -21.51862 5.00489 -1.85075 5.5022 -2.76589 -8.35959 1.22301 -5.07161 -10.68048 -2.65351 4.6819 8.36619 -6.81879 5.77506 6.58848 11.23865
-0.00439 0.57868 -0.00155 177.29165 0 -4.97966 5.30603 4.99775 0.06327 -34.94417 1.51332 1.57644 1.84556 -61.092 -90.01195 22.143 75.73364 -21.59505 -2.68373 16.45835 63.33 73.62774 23.44787 -88.32426 -21.42444 4.93361 -1.87774 5.4965 -2.90949 -8.35215 1.24637 -5.0706 -10.66687 -2.65651 4.67865 8.27683 -6.79502 5.7681 6.58241 11.21898
-0.00447 0.57866 -0.00163 177.39922 0 -4.96687 5.26819 4.99199 0.0364 -34.97204 1.53289 1.55946 1.96491 -61.12302 -90.0104 22.1413 75.82322 -21.49838 -2.69538 16.86161 63.21962 73.13766 23.38272 -88.65333 -21.34102 4.87974 -1.90578 5.49414 -3.03553 -8.34074 1.26684 -5.07123 -10.65594 -2.65942 4.67778 8.18963 -6.77605 5.76189 6.58078 11.20769
-0.00456 0.57865 -0.00175 177.47544 0 -4.95954 5.25242 4.98331 0.02628 -35.02136 1.53656 1.55055 2.23095 -61.16952 -90.01291 22.16065 76.08471 -21.39776 -2.73338 17.27631 63.15243 72.656 23.36868 -88.76399 -21.27547 4.88146 -1.93948 5.50137 -3.11627 -8.31619 1.27832 -5.07702 -10.65441 -2.66168 4.68383 8.10397 -6.77101 5.75802 6.5908 11.21849
-0.00466 0.57863 -0.00188 177.53817 0 -4.9542 5.24441 4.97372 0.02336 -35.07575 1.53475 1.54558 2.55024 -61.22037 -90.01067 22.18836 76.40646 -21.29197 -2.78647 17.69171 63.09641 72.17114 23.37522 -88.81518 -21.22164 4.90218 -1.97427 5.51198 -3.17906 -8.28772 1.28702 -5.08452 -10.6558 -2.66368 4.69233 8.0207 -6.77123 5.75526 6.60518 11.23746
